PathFileType	4	(X/Y/Z)	/home/abdul/Desktop/myosuite/custom_workspace/IK/output/S12_12_1.trc
DataRate	CameraRate	NumFrames	NumMarkers	Units	OrigDataRate	OrigDataStartFrame	OrigNumFrames
200.0	200.0	67	3	mm	200.0	1	2082
Frame#	Time	V_Shoulder			V_Elbow			V_Wrist		
		X1	Y1	Z1	X2	Y2	Z2	X3	Y3	Z3

1	0.0	-27.61405277103491	713.1534904954333	237.35656245121086	-82.93767491809777	674.988419382337	-20.310312622417836	-106.5494222320659	511.59929907930024	25.457033934671465
2	0.005	-27.62533027303193	713.155716122517	237.355668279076	-82.93900303108711	674.9926396816961	-20.311167748493343	-106.5575798182802	511.6042984805765	25.442946679735265
3	0.01	-27.63666370881042	713.1580890170202	237.35475504894626	-82.94029671149022	674.9970017985459	-20.312052839078348	-106.56587680563555	511.6095195076846	25.428947445427003
4	0.015	-27.648034843641014	713.1606116688836	237.35382355882703	-82.94155396850661	675.0014968207333	-20.312969031519817	-106.57429241207132	511.6149534984563	25.415081447659013
5	0.02	-27.659425111126126	713.1632862804769	237.35287467393528	-82.94277298342054	675.0061148601922	-20.31391749107354	-106.5828045729184	511.6205904722201	25.401395238047293
6	0.025	-27.670815660998482	713.1661147478459	237.35190932862122	-82.94395212092635	675.0108450382407	-20.314899406497503	-106.59138997033517	511.6264190958834	25.387936600668027
7	0.03	-27.68218740773065	713.1690986422012	237.35092852842135	-82.9450899395693	675.0156754735601	-20.315915984985793	-106.60002406908077	511.63242665304995	25.374754441352746
8	0.035	-27.69352107974106	713.1722391917393	237.34993335225434	-82.94618520120157	675.0205932730216	-20.316968446419278	-106.60868115878908	511.63859901643576	25.361898669643843
9	0.04	-27.704797268984034	713.1755372638723	237.34892495477183	-82.94723687935743	675.0255845255441	-20.318058016912307	-106.6173344028874	511.64492062385574	25.349420073548245
10	0.045	-27.715996480713518	713.1789933479537	237.34790456887376	-82.94824416645469	675.0306342991564	-20.31918592163756	-106.62595589428457	511.65137445805817	25.33737018724245
11	0.05	-27.727099183214943	713.1826075385874	237.34687350840014	-82.94920647973441	675.0357266414442	-20.32035337691453	-106.63451671793072	511.65794203068845	25.325801151897213
12	0.055	-27.73808585730396	713.1863795196041	237.3458331710085	-82.95012346585614	675.0408445835642	-20.321561581550583	-106.64298702032707	511.6646033706676	25.314765569805058
13	0.06	-27.748937045397238	713.1903085487943	237.34478504124732	-82.95099500407127	675.045970148003	-20.32281170742714	-106.65133608604037	511.67133701727414	25.30431635200872
14	0.065	-27.759633399966976	713.1943934434815	237.34373069383446	-82.95182120790442	675.0510843602644	-20.324104889327142	-106.65953242124885	511.6781200182213	25.294506559643747
15	0.07	-27.770155731198443	713.1986325670238	237.3426717971495	-82.9526024252783	675.0561672646635	-20.32544221400409	-106.66754384431988	511.6849279330205	25.285389239224003
16	0.075	-27.780485053677975	713.2030238163294	237.34161011694866	-82.95333923702594	675.0611979444028	-20.32682470849659	-106.67533758338999	511.69173484192385	25.277017252114792
17	0.08	-27.790602631947376	713.2075646104659	237.34054752030954	-82.95403245374146	675.0661545461084	-20.328253327696576	-106.68288038088812	511.69851336073657	25.26944309845502
18	0.085	-27.800490024769925	713.2122518804499	237.3394859798143	-82.95468311092853	675.0710143089908	-20.329728941183305	-106.69013860491113	511.7052346617856	25.26271873580728
19	0.09	-27.8101291279625	713.2170820602955	237.33842757797697	-82.95529246241475	675.0757535987995	-20.331252319339338	-106.69707836732869	511.7118685013281	25.256895392832902
20	0.095	-27.81950221565818	713.2220510793967	237.33737451192255	-82.95586197200832	675.0803479467255	-20.33282411876881	-106.70366564846107	511.71838325367685	25.252023378308284
21	0.1	-27.828591979873398	713.227154356322	237.3363290983231	-82.95639330338291	675.0847720934045	-20.334444867042244	-106.70986642813982	511.7247459523105	25.248151885819226
22	0.105	-27.837381568264203	713.2323867940913	237.3352937785969	-82.95688830818587	675.0890000381571	-20.336114946796314	-106.7156468229256	511.73092233822877	25.245328794491073
23	0.11	-27.845854619965774	713.2377427770022	237.33427112437585	-82.95734901237441	675.0930050936004	-20.33783457922058	-106.72097322922298	511.7368769157987	25.243600466135028
24	0.115	-27.85399529941999	713.2432161690728	237.3332638432449	-82.95777760079429	675.096759945742	-20.3396038069675	-106.72581247199489	511.7425730163259	25.24301153921454
25	0.12	-27.861788328105614	713.2488003141585	237.33227478475888	-82.95817640002517	675.1002367196667	-20.341422476525317	-106.7301319587439	511.7479728695679	25.24360472006022
26	0.125	-27.869219014095837	713.2544880378006	237.33130694673983	-82.95854785952682	675.1034070508986	-20.34329022009725	-106.73389983839056	511.7530376833895	25.245420571787697
27	0.13	-27.876273279377727	713.2602716508542	237.33036348185829	-82.95889453113085	675.1062421625116	-20.345206437033852	-106.73708516464198	511.7577277317399	25.248497301399365
28	0.135	-27.882937684877813	713.2661429549466	237.3294477045015	-82.95921904693174	675.1087129480435	-20.347170274868635	-106.7396580634072	511.76200245110795	25.252870545579214
29	0.14	-27.88919945314757	713.2720932498014	237.32856309793078	-82.9595240956421	675.1107900602408	-20.349180610010112	-106.74158990377927	511.7658205455888	25.258573155718377
30	0.145	-27.895046488671724	713.2781133424659	237.32771332172987	-82.959812397486	675.1124440056506	-20.351236028146626	-106.7428534720672	511.76914010066673	25.26563498273898
31	0.15	-27.900467395771205	713.2841935584705	237.3269022195462	-82.96008667771491	675.1136452450431	-20.353334804422754	-106.74342314832504	511.77191870579156	25.27408266231424
32	0.155	-27.90545149408123	713.2903237549423	237.32613382712614	-82.96034963883977	675.1143642996319	-20.355474883448814	-106.74327508479001	511.7741135857918	25.283939401113848
33	0.16	-27.909988831593193	713.2964933356872	237.32541238064445	-82.96060393168302	675.1145718630237	-20.357653859207304	-106.74238738560693	511.7756817411368	25.2952247647355
34	0.165	-27.9140701952571	713.3026912682535	237.32474232532783	-82.96085212536255	675.1142389188102	-20.359868954922195	-106.7407402871815	511.7765800970228	25.307954468015282
35	0.17	-27.91768711914864	713.3089061029774	237.32412832437333	-82.96109667632977	675.1133368636793	-20.362117002958882	-106.73831633847358	511.77676566121863	25.322140168442168
36	0.175	-27.920831890212344	713.315125994005	237.32357526815903	-82.96133989659182	675.1118376358945	-20.3643944248243	-106.73510058050886	511.77619569056856	25.337789263433937
37	0.18	-27.92349755159887	713.3213387222822	237.3230882837465	-82.96158392125639	675.1097138489603	-20.366697211338213	-106.73108072435758	511.7748278660051	25.354904692264224
38	0.185	-27.925677903620926	713.3275317204897	237.32267274467245	-82.96183067554597	675.1069389302547	-20.369020903047762	-106.72624732680062	511.772620475881	25.37348474346214
39	0.19	-27.92736750235834	713.3336920998981	237.32233428102708	-82.96208184143546	675.1034872643816	-20.371360570958466	-106.72059396287625	511.7695326073834	25.39352286853734
40	0.195	-27.9285616559482	713.3398066791096	237.32207878981467	-82.962338824074	675.0993343409516	-20.373710797655647	-106.71411739447598	511.76552434574467	25.415007502913703
41	0.2	-27.92925641860126	713.345862014643	237.32191244559354	-82.96260271815848	675.0944569064745	-20.376065658890685	-106.70681773413548	511.7605569809137	25.43792189498442
42	0.205	-27.92944858239056	713.3518444333107	237.32184171138934	-82.96287427443198	675.0888331199985	-20.378418705707002	-106.69869860314623	511.7545932213005	25.46224394422933
43	0.21	-27.92913566686251	713.3577400663347	237.32187334987637	-82.96315386648504	675.0824427121006	-20.38076294718072	-106.68976728309568	511.7475974141551	25.487946049362016
44	0.215	-27.928315906524716	713.3635348851298	237.3220144348206	-82.96344145804258	675.0752671467943	-20.383090833850854	-106.68003485992855	511.73953577208545	25.514994967498936
45	0.22	-27.9269882362684	713.3692147386856	237.32227236277654	-82.96373657092286	675.0672897858752	-20.38539424191373	-106.66951635960993	511.7303766051655	25.54335168536534
46	0.225	-27.92515227478647	713.3747653924657	237.32265486503061	-82.96403825385705	675.0584960551957	-20.387664458255685	-106.65823087446122	511.7200905580287	25.572971303573144
47	0.23	-27.922808306051277	713.3801725687312	237.32317001978072	-82.96434505236081	675.048873612313	-20.389892166397697	-106.64620167923454	511.70865085128565	25.603802935023175
48	0.235	-27.919957258918387	713.3854219881982	237.32382626454282	-82.96465497984994	675.038412514921	-20.39206743342447	-106.63345633598834	511.6960335265459	25.635789618498826
49	0.24	-27.9166006849253	713.3904994129224	237.3246324087729	-82.96496549019214	675.0271053894381	-20.39417969796986	-106.62002678682799	511.6822176942704	25.668868248528966
50	0.245	-27.912740734355534	713.3953906902972	237.3255976466925	-82.96527345188665	675.0149475990795	-20.396217759329094	-106.60594943358026	511.6671857836215	25.702969522605606
51	0.25	-27.908380130640484	713.4000817980549	237.32673157030362	-82.96557512406079	675.0019374107152	-20.39816976776702	-106.59126520347873	511.6509237934224	25.738017906845048
52	0.255	-27.903522143172477	713.4045588901381	237.32804418257902	-82.96586613447047	674.9880761597697	-20.40002321609015	-106.57601959994997	511.6334215432821	25.773931621180335
53	0.26	-27.898170558603766	713.4088083433154	237.3295459108123	-82.96614145968661	674.9733684123919	-20.401764932548677	-106.5602627376076	511.6146729238887	25.8106226451674
54	0.265	-27.892329650706937	713.4128168044022	237.33124762010843	-82.96639540764505	674.9578221240873	-20.403381075132767	-106.54404936058165	511.5946761454193	25.84799674547673
55	0.27	-27.886004148872843	713.4165712379421	237.3331606269985	-82.9666216027311	674.9414487939724	-20.40485712732561	-106.52743884333663	511.5734339829651	25.8859535261267
56	0.275	-27.87919920532266	713.4200589742042	237.33529671315713	-82.96681297356172	674.9242636137851	-20.40617789537359	-106.51049517316112	511.55095401781875	25.924386502493427
57	0.28	-27.87192036111085	713.4232677573359	237.33766813920033	-82.96696174362032	674.906285610756	-20.407327507131782	-106.49328691354657	511.52724887342873	25.963183200105142
58	0.285	-27.864173510995858	713.4261857935209	237.340287658542	-82.96705942488879	674.8875377834199	-20.40828941254052	-106.47588714771173	511.50233644477635	26.00222527919576
59	0.29	-27.855964867255505	713.4288017989699	237.34316853128226	-82.96709681461024	674.8680472294293	-20.409046385786354	-106.45837340157281	511.47624011989495	26.041388685953073
60	0.295	-27.847300922523555	713.4311050475866	237.34632453810332	-82.9670639953037	674.8478452644075	-20.40958052919803	-106.44082754550828	511.4489889922098	26.08054383135106
61	0.3	-27.83818841172395	713.4330854181336	237.34976999414195	-82.96695033813842	674.8269675308693	-20.409873278925197	-106.42333567431984	511.42061806234597	26.119555798403105
62	0.305	-27.828634273178626	713.4347334407299	237.35351976281098	-82.96674450976056	674.8054540962207	-20.409905412444633	-106.40598796484929	511.3911684280217	26.15828457861341
63	0.31	-27.818645608964292	713.4360403425011	237.35758926953622	-82.96643448264962	674.7833495388468	-20.409657057935508	-106.38887851077396	511.36068746062034	26.19658533833737
64	0.315	-27.80822964459344	713.4369980922123	237.36199451537655	-82.96600754906439	674.7607030212839	-20.40910770556192	-106.37210513417003	511.3292289670143	26.234308715687913
65	0.32	-27.79739368809375	713.437599443705	237.366752090491	-82.96545033862094	674.7375683494859	-20.408236220697155	-106.35576917350595	511.2968533351983	26.2713011485439
66	0.325	-27.786145088559945	713.4378379779592	237.37187918741628	-82.96474883952578	674.7140040171844	-20.40702085912063	-106.33997524780452	511.26362766228374	26.307405234128716
67	0.33	-27.774491194251198	713.4377081436091	237.3773936141159	-82.9638884234676	674.6900732343686	-20.405439284214097	-106.32483099679354	511.2296258633994	26.34246012053159
